<svg xmlns="http://www.w3.org/2000/svg" viewBox="0 0 278.78 107.65"><defs><style>.cls-1{fill:red;}.cls-2,.cls-3{font-size:25px;fill:#fff;}.cls-2{font-family:Raleway-ExtraBold, Raleway;font-weight:700;}.cls-3{font-family:Raleway-Regular, Raleway;}.cls-4{letter-spacing:-0.03em;}</style></defs><title>icon_Recurso 2</title><g id="Capa_2" data-name="Capa 2"><g id="Capa_1-2" data-name="Capa 1"><path class="cls-1" d="M69.95,66.29c-.44,9-7,17.35-16.61,17.2C44,83.34,37.12,74.83,37.25,65.79s7.24-17.35,16.61-17.2c9.61.15,15.9,8.67,16.09,17.69,0,1.93,3,1.93,3,0-.22-10.66-7.84-20.54-19.09-20.69-11-.15-19.46,9.55-19.61,20.2s8.11,20.54,19.09,20.69c11.27.16,19.09-9.57,19.61-20.2C73,64.36,70,64.36,69.95,66.29Z"/><path class="cls-1" d="M65.11,50.69,95.33,2.22c1-1.64-1.57-3.15-2.59-1.51L62.52,49.18c-1,1.64,1.57,3.15,2.59,1.51Z"/><path class="cls-1" d="M44.35,49.81,21.35,14c-1-1.62-3.64-.12-2.59,1.51l23,35.79c1,1.62,3.64.12,2.59-1.51Z"/><path class="cls-1" d="M34.45,64.6l-33,.22a1.5,1.5,0,0,0,0,3l33-.22a1.5,1.5,0,0,0,0-3Z"/><path class="cls-1" d="M42.32,80.78l-16,24.67c-1.05,1.62,1.54,3.13,2.59,1.51l16-24.67c1.05-1.62-1.54-3.13-2.59-1.51Z"/><path class="cls-1" d="M62.1,82.64l14.05,21c1.07,1.6,3.67.1,2.59-1.51l-14.05-21c-1.07-1.6-3.67-.1-2.59,1.51Z"/><path class="cls-1" d="M72,68,141.3,68l110.57-.09,25.46,0a1.5,1.5,0,0,0,0-3L208,64.91,97.42,65,72,65a1.5,1.5,0,0,0,0,3Z"/><path class="cls-1" d="M263.34,67.7l11.91-21.24c.95-1.69-1.64-3.2-2.59-1.51L260.74,66.18c-.95,1.69,1.64,3.2,2.59,1.51Z"/><path class="cls-1" d="M274.56,86.44,263.43,66.18c-.93-1.69-3.52-.18-2.59,1.51L272,88c.93,1.69,3.52.18,2.59-1.51Z"/><circle class="cls-1" cx="53.56" cy="66.38" r="3.19" transform="translate(-13.55 119.02) rotate(-89.21)"/><path class="cls-1" d="M55.25,66.42a1.69,1.69,0,0,1-3.38-.09c.05-2.19,3.29-2.07,3.38.09.08,1.92,3.08,1.93,3,0a4.69,4.69,0,1,0-4.91,4.63,4.77,4.77,0,0,0,4.91-4.63C58.38,64.49,55.38,64.5,55.25,66.42Z"/><text class="cls-2" transform="translate(83.02 90.18) scale(1.08 1)">NEURON</text><text class="cls-3" transform="translate(208.63 61.7)">KE<tspan class="cls-4" x="31.3" y="0">Y</tspan></text></g></g></svg>