<?xml version="1.0" encoding="utf-8"?>
<!-- Generator: Adobe Illustrator 16.0.0, SVG Export Plug-In . SVG Version: 6.00 Build 0)  -->
<!DOCTYPE svg PUBLIC "-//W3C//DTD SVG 1.1//EN" "http://www.w3.org/Graphics/SVG/1.1/DTD/svg11.dtd">
<svg version="1.1" xmlns="http://www.w3.org/2000/svg" xmlns:xlink="http://www.w3.org/1999/xlink" x="0px" y="0px" width="100px"
	 height="65px" viewBox="0 -1.5 100 65" enable-background="new 0 -1.5 100 65" xml:space="preserve">
<g id="fondo" xmlns:cc="http://creativecommons.org/ns#" xmlns:osb="http://www.openswatchbook.org/uri/2009/osb" xmlns:svg="http://www.w3.org/2000/svg" xmlns:dc="http://purl.org/dc/elements/1.1/" xmlns:rdf="http://www.w3.org/1999/02/22-rdf-syntax-ns#" display="none">
	<g id="layer3" transform="translate(0,-1218)" display="inline">
	</g>
	<g id="layer5" transform="translate(0,-1218)" display="inline">
	</g>
	<g id="layer1" transform="translate(0,-1218)" display="inline">
	</g>
</g>
<g id="Borde">
	<path fill="#770000" stroke="#000000" stroke-miterlimit="5" d="M59.729,49.833c9.317-3.914,15.864-13.146,15.864-23.915
		c0-14.313-11.566-25.917-25.834-25.917c-14.268,0-25.834,11.604-25.834,25.917c0,10.768,6.546,20,15.864,23.915H0.72V62.5h98.589
		V49.833H59.729z"/>
</g>
<g id="CErebro">
	<path id="path4163" fill="#808080" stroke="#000000" stroke-width="1.404" stroke-miterlimit="5" d="M30.897,14.709
		c0.389-0.568,0.958-1.723,1.5-2.173s0.889-0.313,1.44-0.646s1.222-1.053,1.8-1.409c0.58-0.356,1.215-0.493,1.621-0.764
		c0.405-0.271,0.241-0.474,0.84-0.763c0.6-0.29,1.992-0.18,2.82-0.47c0.829-0.29,1.334-0.975,2.102-1.174
		c0.766-0.199,1.639,0.143,2.34,0c0.703-0.143,1.128-0.561,1.801-0.763s1.251-0.371,2.221-0.411
		c0.969-0.041,2.642,0.223,3.541,0.352c0.9,0.13,0.969,0.17,1.861,0.353c0.891,0.182,2.4,0.476,3.48,0.763s2.104,0.446,3,0.939
		c0.896,0.494,1.471,1.253,2.281,1.938s1.949,1.413,2.58,2.173c0.633,0.761,0.639,1.473,1.262,2.231
		c0.621,0.758,1.871,1.137,2.52,2.173c0.65,1.036,0.824,3.021,1.02,3.875c0.197,0.855,0.273,0.889,0.24,1.233
		c-0.031,0.344-0.301,0.166-0.299,0.764c0,0.598,0.846,1.488,1.02,2.583s-0.02,2.804-0.24,3.875c-0.219,1.072-0.295,1.88-0.9,2.525
		c-0.604,0.646-1.912,0.954-2.4,1.058c-0.488,0.102-0.074-0.289-0.359,0c-0.287,0.287,0.26,1.294,0.061,2.055
		c-0.201,0.761-0.816,1.588-1.381,2.29s-1.182,1.28-1.98,1.88c-0.801,0.599-1.84,1.447-2.82,1.644
		c-0.982,0.196-1.555-1.479-2.701-0.353s1.508,5.528,0.961,6.813c-0.549,1.283-0.643,0.812-1.201,0.881
		c-0.561,0.068-1.174-0.563-1.74-0.705c-0.568-0.143-0.582,0.806-1.621-0.176c-1.039-0.982-0.24-5.478-1.02-6.813
		s-1.387-0.995-1.861-1.468c-0.473-0.474-0.895-0.892-1.02-1.292c-0.125-0.401,0.34-0.332,0.061-0.881
		c-0.281-0.549-1.92-1.191-2.401-1.527c-0.482-0.335-0.094-0.367-0.541-0.41s-1.383,0.66-1.8,0.881
		c-0.418,0.221-0.04,0.25-0.721,0.41c-0.68,0.162-2.357-0.028-3.361-0.176c-1.002-0.147-1.828-0.023-2.641-0.646
		c-0.811-0.622-1.289-2.28-1.619-2.995c-0.332-0.715,0.063-0.822-0.48-1.232c-0.545-0.412-1.706-0.108-2.761-0.294
		c-1.055-0.187-2.579-0.337-3.541-0.881c-0.962-0.544-1.431-1.283-2.101-2.114s-1.443-1.88-1.86-2.877
		c-0.417-0.998-0.7-2.269-0.66-2.995c0.04-0.727,0.241-0.503,0.42-1.233s0.015-2.337,0.48-3.171
		c0.465-0.834,1.474-1.146,1.921-1.645C30.503,15.444,30.507,15.277,30.897,14.709z"/>
</g>
<g id="Cubo">
	<g id="g4559">
		<path id="path4569" fill="#FFF7FB" stroke="#000000" stroke-width="0.4696" stroke-linejoin="round" d="M40.224,25.402
			c1.183,0.437,9.459,3.498,10.642,3.935l8.938-4.325l-10.628-2.521L40.224,25.402L40.224,25.402z"/>
		<path id="path4561" fill="#FFF7FB" stroke="#000000" stroke-width="0.4696" stroke-linejoin="round" d="M40.224,17.168v8.233
			l8.951-2.911c0-2.315,0-4.63,0-6.945C50.07,15.384,39.329,17.331,40.224,17.168L40.224,17.168z"/>
		<path id="path4571" fill="#FFF7FB" stroke="#000000" stroke-width="0.4696" stroke-linejoin="round" d="M49.175,15.546
			c14.171,1.263-3.543-0.315,10.628,0.947c0,2.84,0,5.68,0,8.52l-10.628-2.521C49.175,20.176,49.175,17.861,49.175,15.546z"/>
		<path id="path4563" fill="#FFF7FB" stroke="#000000" stroke-width="0.4696" stroke-linejoin="round" d="M40.251,17.171
			c2.365,0.362,8.276,1.265,10.642,1.627l8.938-2.303c-2.237-0.199-8.391-0.748-10.628-0.947
			C50.097,15.386,39.355,17.333,40.251,17.171L40.251,17.171z"/>
		<path id="path4567" fill="#FFF7FB" stroke="#000000" stroke-width="0.4696" stroke-linejoin="round" d="M50.866,18.795v10.542
			l8.938-4.325c0-2.84,0-5.68,0-8.52C56.824,17.261,53.846,18.028,50.866,18.795L50.866,18.795z"/>
		<path id="path4565" fill="#FFF7FB" stroke="#000000" stroke-width="0.4696" stroke-linejoin="round" d="M40.288,17.168
			c2.339,0.363,8.187,1.271,10.526,1.634V29.39l-10.526-3.952V17.168L40.288,17.168z"/>
	</g>
</g>
<g id="TExto">
	<text transform="matrix(1 0 0 1 1.8926 59.6045)" fill="#EEEEEE" font-family="'FranklinGothic-Heavy'" font-size="12">Sugar4Brain.com</text>
	
		<text transform="matrix(1 0 0 1 1.8926 59.6045)" fill="#EEEEEE" stroke="#000000" stroke-width="0.3674" font-family="'FranklinGothic-Heavy'" font-size="12">Sugar4Brain.com</text>
</g>
</svg>
