<?xml version="1.0" encoding="utf-8"?>
<!-- Generator: Adobe Illustrator 16.0.0, SVG Export Plug-In . SVG Version: 6.00 Build 0)  -->
<!DOCTYPE svg PUBLIC "-//W3C//DTD SVG 1.1//EN" "http://www.w3.org/Graphics/SVG/1.1/DTD/svg11.dtd">
<svg version="1.1" id="Capa_1" xmlns="http://www.w3.org/2000/svg" xmlns:xlink="http://www.w3.org/1999/xlink" x="0px" y="0px"
	 width="85.04px" height="85.04px" viewBox="0 0 85.04 85.04" enable-background="new 0 0 85.04 85.04" xml:space="preserve">
<path id="path4163" fill="none" stroke="#FFFFFF" stroke-width="2" stroke-miterlimit="5" d="M8.944,20.204
	c0.695-1.008,1.688-3.023,2.681-3.729c0.993-0.806,1.589-0.604,2.583-1.108c0.993-0.605,2.185-1.814,3.277-2.52
	c1.093-0.605,2.185-0.807,2.88-1.311c0.794-0.403,0.497-0.806,1.589-1.31s3.575-0.302,5.065-0.806
	c1.49-0.504,2.384-1.713,3.774-2.016c1.391-0.403,2.979,0.202,4.271,0c1.291-0.302,1.986-1.008,3.277-1.411
	c1.191-0.302,2.185-0.604,3.972-0.706c1.789-0.101,4.767,0.404,6.357,0.605c1.688,0.202,1.787,0.302,3.376,0.605
	c1.688,0.302,4.37,0.807,6.356,1.21c1.986,0.504,3.774,0.807,5.463,1.613c1.589,0.907,2.582,2.218,4.072,3.327
	c1.489,1.209,3.535,2.419,4.728,3.729c1.132,1.311,1.132,2.52,2.324,3.83c1.132,1.311,3.377,1.916,4.568,3.73
	c1.192,1.713,1.451,5.14,1.849,6.652c0.337,1.411,0.536,1.512,0.396,2.116c0,0.605-0.456,0.303-0.456,1.311s1.529,2.52,1.788,4.435
	c0.397,1.814,0,4.838-0.397,6.652c-0.258,1.813-0.536,3.225-1.589,4.334c-1.053,1.108-3.436,1.612-4.23,1.813
	c-0.934,0.201-0.278-0.504-0.734,0c-0.457,0.504,0.456,2.218,0.06,3.527c-0.259,1.311-1.45,2.722-2.443,4.032
	c-0.993,1.108-2.046,2.116-3.575,3.225c-1.39,1.008-3.277,2.52-5.064,2.822c-1.788,0.302-2.781-2.521-4.867-0.605
	c-2.085,2.016,2.782,9.475,1.789,11.692c-0.993,2.217-1.191,1.411-2.185,1.512c-0.993,0.201-2.086-0.907-3.179-1.109
	c-0.993-0.303-0.993,1.311-2.88-0.303c-1.888-1.713-0.497-9.475-1.888-11.691c-1.49-2.318-2.583-1.714-3.377-2.521
	c-0.895-0.806-1.688-1.512-1.888-2.217c-0.198-0.706,0.596-0.605,0.1-1.513c-0.497-1.008-3.477-2.016-4.37-2.62
	c-0.894-0.605-0.199-0.605-0.993-0.706c-0.795-0.101-2.483,1.108-3.178,1.512c-0.794,0.403-0.099,0.403-1.291,0.705
	c-1.291,0.303-4.271,0-6.158-0.303c-1.788-0.201-3.277,0-4.767-1.008c-1.49-1.109-2.384-3.932-2.98-5.141
	c-0.596-1.21,0.099-1.411-0.794-2.117c-0.994-0.705-3.178-0.201-5.065-0.504s-4.668-0.605-6.356-1.513
	c-1.788-0.907-2.682-2.217-3.874-3.628c-1.192-1.411-2.583-3.226-3.377-4.939s-1.292-3.83-1.192-5.141
	c0.1-1.209,0.397-0.806,0.695-2.116c0.397-1.209,0-4.032,0.894-5.443c0.794-1.411,2.681-1.915,3.476-2.822
	C8.249,21.413,8.249,21.211,8.944,20.204z"/>
<g id="g4559_2_">
	<path id="path4569_3_" fill="none" stroke="#FFFFFF" stroke-width="2" stroke-linejoin="round" d="M42.892,33.053"/>
	<path id="path4569_2_" fill="none" stroke="#FFFFFF" stroke-width="2" stroke-linejoin="round" d="M29.711,38.3L29.711,38.3
		c1.672,0.814,13.967,6.243,15.738,7.057l13.181-7.781"/>
	<path id="path4571_3_" fill="none" stroke="#FFFFFF" stroke-width="2" stroke-linejoin="round" d="M42.892,33.053"/>
	<path id="path4571_2_" fill="none" stroke="#FFFFFF" stroke-width="2" stroke-linejoin="round" d="M42.892,20.567
		c21.05,2.262-5.213-0.542,15.738,1.719c0,5.066,0,10.223,0,15.29"/>
	<path id="path4563_2_" fill="none" stroke="#FFFFFF" stroke-width="2" stroke-linejoin="round" d="M29.711,23.553
		c3.541,0.633,12.295,2.262,15.738,2.895l13.278-4.162c-3.345-0.362-12.491-1.357-15.737-1.719
		C44.269,20.296,28.433,23.825,29.711,23.553L29.711,23.553z"/>
	<path id="path4567_2_" fill="none" stroke="#FFFFFF" stroke-width="2" stroke-linejoin="round" d="M45.449,26.448v18.909
		l13.181-7.781c0-5.067,0-10.224,0-15.29C54.203,23.644,49.875,25.091,45.449,26.448L45.449,26.448z"/>
	<path id="path4565_2_" fill="none" stroke="#FFFFFF" stroke-width="2" stroke-linejoin="round" d="M29.81,23.553
		c3.443,0.633,12.099,2.262,15.541,2.895v18.999L29.81,38.391V23.553L29.81,23.553z"/>
</g>
</svg>
