<?xml version="1.0" encoding="UTF-8" standalone="no"?>
<!-- Created with Inkscape (http://www.inkscape.org/) -->

<svg
   xmlns:dc="http://purl.org/dc/elements/1.1/"
   xmlns:cc="http://creativecommons.org/ns#"
   xmlns:rdf="http://www.w3.org/1999/02/22-rdf-syntax-ns#"
   xmlns:svg="http://www.w3.org/2000/svg"
   xmlns="http://www.w3.org/2000/svg"
   xmlns:sodipodi="http://sodipodi.sourceforge.net/DTD/sodipodi-0.dtd"
   xmlns:inkscape="http://www.inkscape.org/namespaces/inkscape"
   width="210mm"
   height="297mm"
   viewBox="0 0 744.09448819 1052.3622047"
   id="svg4289"
   version="1.1"
   inkscape:version="0.91 r13725"
   sodipodi:docname="sugar4brain_logo8.svg">
  <defs
     id="defs4291" />
  <sodipodi:namedview
     id="base"
     pagecolor="#ffffff"
     bordercolor="#666666"
     borderopacity="1.0"
     inkscape:pageopacity="0.0"
     inkscape:pageshadow="2"
     inkscape:zoom="1.9768478"
     inkscape:cx="278.18168"
     inkscape:cy="813.12291"
     inkscape:document-units="px"
     inkscape:current-layer="layer3"
     showgrid="false"
     inkscape:window-width="1920"
     inkscape:window-height="1057"
     inkscape:window-x="-8"
     inkscape:window-y="-8"
     inkscape:window-maximized="1" />
  <metadata
     id="metadata4294">
    <rdf:RDF>
      <cc:Work
         rdf:about="">
        <dc:format>image/svg+xml</dc:format>
        <dc:type
           rdf:resource="http://purl.org/dc/dcmitype/StillImage" />
        <dc:title></dc:title>
      </cc:Work>
    </rdf:RDF>
  </metadata>
  <g
     inkscape:label="Marco Cuadrado"
     inkscape:groupmode="layer"
     id="layer1">
    <rect
       style="fill:#ffffff;fill-opacity:1;stroke:#000000;stroke-width:2.6;stroke-linecap:butt;stroke-linejoin:round;stroke-miterlimit:4;stroke-dasharray:none;stroke-dashoffset:0;stroke-opacity:1"
       id="rect4838"
       width="305.19968"
       height="240.94711"
       x="198.78137"
       y="115.68028" />
  </g>
  <g
     inkscape:groupmode="layer"
     id="layer3"
     inkscape:label="Texto">
    <text
       xml:space="preserve"
       style="font-style:normal;font-weight:normal;font-size:40px;line-height:125%;font-family:sans-serif;letter-spacing:0px;word-spacing:0px;fill:#fffaff;fill-opacity:1;stroke:#000000;stroke-width:1.5;stroke-linecap:butt;stroke-linejoin:miter;stroke-miterlimit:4;stroke-dasharray:none;stroke-opacity:1"
       x="211.44774"
       y="324.9415"
       id="text4897"
       sodipodi:linespacing="125%"><tspan
         sodipodi:role="line"
         id="tspan4899"
         x="211.44774"
         y="324.9415"
         style="font-style:normal;font-variant:normal;font-weight:bold;font-stretch:normal;font-family:sans-serif;-inkscape-font-specification:'sans-serif Bold';fill:#fffaff;fill-opacity:1;stroke:#000000;stroke-width:1.5;stroke-miterlimit:4;stroke-dasharray:none;stroke-opacity:1">Sugar4Brain</tspan></text>
  </g>
  <g
     inkscape:groupmode="layer"
     id="layer2"
     inkscape:label="Cerebro">
    <g
       style="display:inline;opacity:1"
       id="g4175"
       transform="matrix(0.89056816,0,0,0.89056816,-48.602737,-854.12191)">
      <path
         sodipodi:nodetypes="zzzzzzzzzzzzzzzzzzzzzzzzzzzzzzzzzzzzzzzzzzzzzzzzzzzzzzzzz"
         inkscape:connector-curvature="0"
         id="path4163"
         d="m 407.84128,1130.569 c 0.62806,-0.9434 1.54475,-2.8618 2.41873,-3.6087 0.87398,-0.7469 1.43216,-0.5201 2.32199,-1.0729 0.88983,-0.5527 1.96922,-1.7487 2.90248,-2.3408 0.93326,-0.5921 1.95852,-0.8184 2.61224,-1.2679 0.65371,-0.4494 0.38887,-0.7875 1.35449,-1.2679 0.96562,-0.4805 3.21149,-0.2981 4.54722,-0.7803 1.33573,-0.4822 2.15018,-1.6197 3.38623,-1.9506 1.23605,-0.3309 2.64122,0.2366 3.77323,0 1.13201,-0.2366 1.81805,-0.9322 2.90248,-1.2679 1.08444,-0.3358 2.01768,-0.6153 3.57973,-0.6828 1.56205,-0.067 4.25844,0.3699 5.70821,0.5852 1.44978,0.2153 1.56262,0.2828 2.99924,0.5852 1.43662,0.3024 3.86955,0.7912 5.61147,1.2679 1.74191,0.4768 3.39235,0.7411 4.83747,1.5606 1.44512,0.8194 2.37051,2.0805 3.67647,3.2185 1.30597,1.1381 3.14164,2.3456 4.16023,3.6087 1.0186,1.2632 1.02808,2.4467 2.03174,3.7063 1.00366,1.2595 3.0167,1.8889 4.06348,3.6087 1.04678,1.7198 1.32946,5.0169 1.64474,6.4371 0.31528,1.4203 0.43786,1.4766 0.38699,2.0482 -0.0509,0.5716 -0.48449,0.2747 -0.48374,1.2679 8.2e-4,0.9932 1.36437,2.4717 1.64473,4.2914 0.28036,1.8198 -0.0327,4.6576 -0.38699,6.4372 -0.35433,1.7796 -0.47726,3.1224 -1.45125,4.1939 -0.97398,1.0715 -3.08383,1.5855 -3.86997,1.7556 -0.78614,0.1701 -0.11957,-0.4781 -0.5805,0 -0.46091,0.4781 0.41975,2.1497 0.0968,3.4136 -0.323,1.2639 -1.31526,2.6383 -2.22524,3.8038 -0.90998,1.1655 -1.90398,2.1259 -3.19273,3.121 -1.28876,0.9952 -2.96596,2.4039 -4.54723,2.7309 -1.58127,0.3271 -2.50512,-2.4572 -4.35372,-0.5852 -1.84861,1.872 2.42995,9.1819 1.54799,11.3138 -0.88196,2.1319 -1.03295,1.3482 -1.93499,1.463 -0.90204,0.1148 -1.89131,-0.9336 -2.80573,-1.1704 -0.91443,-0.2369 -0.93728,1.3381 -2.61224,-0.2926 -1.67495,-1.6307 -0.3889,-9.0966 -1.64474,-11.3138 -1.25583,-2.2171 -2.23619,-1.6529 -2.99923,-2.4383 -0.76304,-0.7853 -1.44348,-1.4796 -1.64474,-2.1457 -0.20126,-0.6661 0.54944,-0.5509 0.0967,-1.463 -0.45269,-0.9121 -3.09353,-1.9786 -3.86998,-2.5358 -0.77644,-0.5573 -0.14957,-0.6108 -0.87074,-0.6828 -0.72117,-0.072 -2.22975,1.0962 -2.90249,1.463 -0.67274,0.3669 -0.0643,0.4154 -1.16099,0.6828 -1.09669,0.2673 -3.80053,-0.047 -5.41797,-0.2926 -1.61743,-0.2452 -2.94867,-0.04 -4.25697,-1.0729 -1.30831,-1.033 -2.07865,-3.787 -2.61223,-4.9741 -0.5336,-1.1872 0.10335,-1.3653 -0.774,-2.0482 -0.87736,-0.683 -2.75022,-0.1782 -4.45048,-0.4877 -1.70026,-0.3094 -4.1575,-0.5591 -5.70821,-1.463 -1.55072,-0.9038 -2.30601,-2.1301 -3.38623,-3.5112 -1.08022,-1.381 -2.32679,-3.1217 -2.99923,-4.779 -0.67245,-1.6574 -1.12971,-3.7681 -1.06425,-4.9742 0.0655,-1.2061 0.38988,-0.8351 0.67725,-2.0482 0.28737,-1.2131 0.0239,-3.8811 0.77399,-5.2667 0.75007,-1.3857 2.37554,-1.9029 3.09599,-2.7309 0.72044,-0.8281 0.72642,-1.1049 1.35449,-2.0482 z"
         style="fill:#808080;fill-opacity:1;fill-rule:evenodd;stroke:#000000;stroke-width:2.29742885;stroke-linecap:butt;stroke-linejoin:miter;stroke-miterlimit:5;stroke-dasharray:none;stroke-dashoffset:236;stroke-opacity:1" />
      <g
         id="g5425"
         transform="matrix(0.32921446,0,0,0.32921446,177.18036,965.57501)"
         style="stroke:#000000;stroke-opacity:1">
        <path
           inkscape:connector-curvature="0"
           id="path5289"
           style="fill:#fff7fb;fill-opacity:1;fill-rule:evenodd;stroke:#000000;stroke-width:3.27674961;stroke-linecap:butt;stroke-linejoin:round;stroke-miterlimit:4;stroke-dasharray:none;stroke-dashoffset:0;stroke-opacity:1"
           d="m 738.9244,554.79495 62.92945,26.12579 52.84773,-28.71104 -62.85009,-16.73403 z" />
        <path
           inkscape:connector-curvature="0"
           id="path5291"
           style="fill:#fff7fb;fill-opacity:1;fill-rule:evenodd;stroke:#000000;stroke-width:3.27674961;stroke-linecap:butt;stroke-linejoin:round;stroke-miterlimit:4;stroke-dasharray:none;stroke-dashoffset:0;stroke-opacity:1"
           d="m 738.9244,500.14202 0,54.65293 52.92709,-19.31928 0,-46.10362 z" />
        <path
           inkscape:connector-curvature="0"
           id="path5293"
           style="fill:#fff7fb;fill-opacity:1;fill-rule:evenodd;stroke:#000000;stroke-width:3.27674961;stroke-linecap:butt;stroke-linejoin:round;stroke-miterlimit:4;stroke-dasharray:none;stroke-dashoffset:0;stroke-opacity:1"
           d="m 791.85149,489.37205 62.85009,6.28481 0,56.55284 -62.85009,-16.73403 z" />
        <path
           inkscape:connector-curvature="0"
           id="path5295"
           style="fill:#fff7fb;fill-opacity:1;fill-rule:evenodd;stroke:#000000;stroke-width:3.27674961;stroke-linecap:butt;stroke-linejoin:round;stroke-miterlimit:4;stroke-dasharray:none;stroke-dashoffset:0;stroke-opacity:1"
           d="m 738.9244,500.14202 62.92945,10.79769 52.84773,-15.28285 -62.85009,-6.28481 z" />
        <path
           inkscape:connector-curvature="0"
           id="path5297"
           style="fill:#fff7fb;fill-opacity:1;fill-rule:evenodd;stroke:#000000;stroke-width:3.27674961;stroke-linecap:butt;stroke-linejoin:round;stroke-miterlimit:4;stroke-dasharray:none;stroke-dashoffset:0;stroke-opacity:1"
           d="m 801.85385,510.93971 0,69.98103 52.84773,-28.71104 0,-56.55284 z" />
        <path
           inkscape:connector-curvature="0"
           id="path5299"
           style="fill:#fff7fb;fill-opacity:1;fill-rule:evenodd;stroke:#000000;stroke-width:3.27674961;stroke-linecap:butt;stroke-linejoin:round;stroke-miterlimit:4;stroke-dasharray:none;stroke-dashoffset:0;stroke-opacity:1"
           d="m 738.9244,500.14202 62.92945,10.79769 0,69.98103 -62.92945,-26.12579 z" />
      </g>
    </g>
  </g>
</svg>
