<?xml version="1.0" encoding="UTF-8" standalone="no"?>
<!-- Created with Inkscape (http://www.inkscape.org/) -->

<svg
   xmlns:dc="http://purl.org/dc/elements/1.1/"
   xmlns:cc="http://creativecommons.org/ns#"
   xmlns:rdf="http://www.w3.org/1999/02/22-rdf-syntax-ns#"
   xmlns:svg="http://www.w3.org/2000/svg"
   xmlns="http://www.w3.org/2000/svg"
   xmlns:xlink="http://www.w3.org/1999/xlink"
   xmlns:sodipodi="http://sodipodi.sourceforge.net/DTD/sodipodi-0.dtd"
   xmlns:inkscape="http://www.inkscape.org/namespaces/inkscape"
   width="250"
   height="215"
   viewBox="0 0 250 215"
   id="svg4163"
   version="1.1"
   inkscape:version="0.91 r13725"
   style="shape-rendering:crispEdges"
   sodipodi:docname="sygar4brain_logo10.svg">
  <defs
     id="defs4165">
    <ellipse
       transform="matrix(-0.82915502,-0.55901874,0.76306066,-0.64632687,0,0)"
       ry="47.86219"
       rx="51.16589"
       cy="227.84651"
       cx="-33.005695"
       id="path4294"
       style="display:inline;fill:none;fill-opacity:1;stroke:none;stroke-width:0.38794369;stroke-linecap:butt;stroke-linejoin:round;stroke-miterlimit:4;stroke-dasharray:none;stroke-dashoffset:0;stroke-opacity:1" />
    <ellipse
       transform="matrix(-0.86009621,0.51013186,0.57939299,0.81504832,0,0)"
       ry="59.347855"
       rx="63.656284"
       cy="-6.752573"
       cx="-243.04254"
       id="path4314"
       style="display:inline;fill:none;fill-opacity:1;stroke:none;stroke-width:0.10746382;stroke-linecap:butt;stroke-linejoin:round;stroke-miterlimit:4;stroke-dasharray:none;stroke-dashoffset:0;stroke-opacity:1" />
  </defs>
  <sodipodi:namedview
     id="base"
     pagecolor="#ffffff"
     bordercolor="#666666"
     borderopacity="1.0"
     inkscape:pageopacity="0.0"
     inkscape:pageshadow="2"
     inkscape:zoom="2.278777"
     inkscape:cx="144.28571"
     inkscape:cy="110"
     inkscape:document-units="px"
     inkscape:current-layer="layer1"
     showgrid="false"
     units="px"
     inkscape:window-width="1920"
     inkscape:window-height="1057"
     inkscape:window-x="-8"
     inkscape:window-y="-8"
     inkscape:window-maximized="1" />
  <metadata
     id="metadata4168">
    <rdf:RDF>
      <cc:Work
         rdf:about="">
        <dc:format>image/svg+xml</dc:format>
        <dc:type
           rdf:resource="http://purl.org/dc/dcmitype/StillImage" />
        <dc:title></dc:title>
      </cc:Work>
    </rdf:RDF>
  </metadata>
  <g
     inkscape:label="Capa 1"
     inkscape:groupmode="layer"
     id="layer1"
     transform="translate(0,-837.36216)">
    <g
       transform="matrix(1.4163616,0,0,1.4163616,-156.49613,1125.7975)"
       style="display:inline"
       id="g5813">
      <g
         transform="matrix(1.5398384,0,0,1.4759039,-553.90658,-1861.3931)"
         id="g4175"
         style="display:inline;opacity:1">
        <path
           style="fill:#808080;fill-opacity:1;fill-rule:evenodd;stroke:#000000;stroke-width:1.93095016;stroke-linecap:butt;stroke-linejoin:miter;stroke-miterlimit:5;stroke-dasharray:none;stroke-dashoffset:236;stroke-opacity:1"
           d="m 462.9653,1158.8958 c 0.52788,-0.7929 1.29834,-2.4053 2.0329,-3.033 0.73457,-0.6278 1.20371,-0.4372 1.9516,-0.9018 0.74788,-0.4645 1.65509,-1.4697 2.43948,-1.9674 0.78439,-0.4976 1.64611,-0.6878 2.19555,-1.0656 0.54943,-0.3777 0.32683,-0.6619 1.13842,-1.0657 0.81159,-0.4038 2.6992,-0.2505 3.82186,-0.6558 1.12266,-0.4053 1.80719,-1.3613 2.84607,-1.6395 1.03888,-0.2781 2.2199,0.1989 3.17134,0 0.95143,-0.1988 1.52804,-0.7835 2.43948,-1.0656 0.91146,-0.2822 1.69583,-0.5172 3.00871,-0.5739 1.31287,-0.056 3.57914,0.3109 4.79765,0.4919 1.21852,0.1809 1.31336,0.2377 2.52081,0.4918 1.20746,0.2542 3.25229,0.665 4.71635,1.0657 1.46404,0.4007 2.85121,0.6228 4.06581,1.3116 1.2146,0.6887 1.99237,1.7486 3.09001,2.7051 1.09765,0.9566 2.64049,1.9715 3.4966,3.0331 0.85612,1.0617 0.86409,2.0564 1.70765,3.115 0.84355,1.0586 2.53548,1.5876 3.41528,3.0331 0.8798,1.4455 1.11739,4.2166 1.38238,5.4103 0.26499,1.1937 0.36801,1.241 0.32526,1.7215 -0.0428,0.4804 -0.40721,0.2308 -0.40658,1.0656 6.9e-4,0.8348 1.14673,2.0774 1.38237,3.6068 0.23564,1.5296 -0.0275,3.9147 -0.32526,5.4104 -0.29781,1.4957 -0.40113,2.6243 -1.21975,3.5249 -0.81861,0.9006 -2.59191,1.3326 -3.25265,1.4756 -0.66073,0.1429 -0.10049,-0.4019 -0.4879,0 -0.38738,0.4018 0.3528,1.8067 0.0814,2.869 -0.27147,1.0623 -1.10545,2.2175 -1.87027,3.1971 -0.76483,0.9795 -1.60027,1.7867 -2.68344,2.6231 -1.08318,0.8365 -2.49284,2.0204 -3.82187,2.2953 -1.32903,0.2749 -2.10551,-2.0652 -3.65923,-0.4919 -1.55372,1.5734 2.04233,7.7173 1.30106,9.5091 -0.74127,1.7918 -0.86817,1.1331 -1.62632,1.2296 -0.75815,0.096 -1.58962,-0.7847 -2.35817,-0.9837 -0.76857,-0.1991 -0.78777,1.1247 -2.19555,-0.2459 -1.40776,-1.3706 -0.32686,-7.6455 -1.38237,-9.5091 -1.05551,-1.8634 -1.87948,-1.3892 -2.5208,-2.0493 -0.64133,-0.66 -1.21323,-1.2436 -1.38238,-1.8034 -0.16916,-0.5599 0.46179,-0.4631 0.0813,-1.2297 -0.38047,-0.7666 -2.60006,-1.6629 -3.25265,-2.1313 -0.65258,-0.4684 -0.12571,-0.5133 -0.73184,-0.5738 -0.60613,-0.061 -1.87407,0.9213 -2.43949,1.2296 -0.56543,0.3084 -0.0541,0.3491 -0.9758,0.5739 -0.92175,0.2246 -3.19428,-0.04 -4.55371,-0.246 -1.35942,-0.206 -2.47831,-0.034 -3.57791,-0.9017 -1.09961,-0.8682 -1.74707,-3.1829 -2.19554,-4.1807 -0.44848,-0.9978 0.0869,-1.1475 -0.65053,-1.7214 -0.73741,-0.5741 -2.31151,-0.1498 -3.74055,-0.4099 -1.42904,-0.2601 -3.49431,-0.47 -4.79766,-1.2297 -1.30335,-0.7596 -1.93816,-1.7903 -2.84607,-2.9511 -0.9079,-1.1607 -1.95562,-2.6237 -2.5208,-4.0166 -0.56518,-1.3931 -0.9495,-3.1671 -0.89448,-4.1808 0.0551,-1.0137 0.32768,-0.7019 0.56921,-1.7215 0.24153,-1.0195 0.0201,-3.262 0.65053,-4.4265 0.63042,-1.1647 1.9966,-1.5994 2.60213,-2.2953 0.60551,-0.696 0.61054,-0.9286 1.13842,-1.7215 z"
           id="path4163"
           inkscape:connector-curvature="0"
           sodipodi:nodetypes="zzzzzzzzzzzzzzzzzzzzzzzzzzzzzzzzzzzzzzzzzzzzzzzzzzzzzzzzz" />
        <g
           style="stroke:#000000;stroke-opacity:1"
           transform="matrix(0.16806924,0,0,0.16806924,355.42435,1080.0472)"
           id="g5425">
          <path
             d="m 738.9244,554.79495 62.92945,26.12579 52.84773,-28.71104 -62.85009,-16.73403 z"
             style="fill:#fff7fb;fill-opacity:1;fill-rule:evenodd;stroke:#000000;stroke-width:3.27674961;stroke-linecap:butt;stroke-linejoin:round;stroke-miterlimit:4;stroke-dasharray:none;stroke-dashoffset:0;stroke-opacity:1"
             id="path5289"
             inkscape:connector-curvature="0" />
          <path
             d="m 738.9244,500.14202 0,54.65293 52.92709,-19.31928 0,-46.10362 z"
             style="fill:#fff7fb;fill-opacity:1;fill-rule:evenodd;stroke:#000000;stroke-width:3.27674961;stroke-linecap:butt;stroke-linejoin:round;stroke-miterlimit:4;stroke-dasharray:none;stroke-dashoffset:0;stroke-opacity:1"
             id="path5291"
             inkscape:connector-curvature="0" />
          <path
             d="m 791.85149,489.37205 62.85009,6.28481 0,56.55284 -62.85009,-16.73403 z"
             style="fill:#fff7fb;fill-opacity:1;fill-rule:evenodd;stroke:#000000;stroke-width:3.27674961;stroke-linecap:butt;stroke-linejoin:round;stroke-miterlimit:4;stroke-dasharray:none;stroke-dashoffset:0;stroke-opacity:1"
             id="path5293"
             inkscape:connector-curvature="0" />
          <path
             d="m 738.9244,500.14202 62.92945,10.79769 52.84773,-15.28285 -62.85009,-6.28481 z"
             style="fill:#fff7fb;fill-opacity:1;fill-rule:evenodd;stroke:#000000;stroke-width:3.27674961;stroke-linecap:butt;stroke-linejoin:round;stroke-miterlimit:4;stroke-dasharray:none;stroke-dashoffset:0;stroke-opacity:1"
             id="path5295"
             inkscape:connector-curvature="0" />
          <path
             d="m 801.85385,510.93971 0,69.98103 52.84773,-28.71104 0,-56.55284 z"
             style="fill:#fff7fb;fill-opacity:1;fill-rule:evenodd;stroke:#000000;stroke-width:3.27674961;stroke-linecap:butt;stroke-linejoin:round;stroke-miterlimit:4;stroke-dasharray:none;stroke-dashoffset:0;stroke-opacity:1"
             id="path5297"
             inkscape:connector-curvature="0" />
          <path
             d="m 738.9244,500.14202 62.92945,10.79769 0,69.98103 -62.92945,-26.12579 z"
             style="fill:#fff7fb;fill-opacity:1;fill-rule:evenodd;stroke:#000000;stroke-width:3.27674961;stroke-linecap:butt;stroke-linejoin:round;stroke-miterlimit:4;stroke-dasharray:none;stroke-dashoffset:0;stroke-opacity:1"
             id="path5299"
             inkscape:connector-curvature="0" />
        </g>
      </g>
      <ellipse
         transform="matrix(-0.82915502,-0.55901874,0.76306066,-0.64632687,0,0)"
         ry="47.86219"
         rx="51.16589"
         cy="227.84651"
         cx="-33.005695"
         id="ellipse5854"
         style="display:inline;fill:none;fill-opacity:1;stroke:none;stroke-width:0.38794369;stroke-linecap:butt;stroke-linejoin:round;stroke-miterlimit:4;stroke-dasharray:none;stroke-dashoffset:0;stroke-opacity:1" />
      <text
         transform="translate(-0.65370416,-5.2685204)"
         sodipodi:linespacing="125%"
         id="text4296"
         style="font-style:normal;font-variant:normal;font-weight:bold;font-stretch:normal;font-size:25px;line-height:125%;font-family:sans-serif;-inkscape-font-specification:'sans-serif Bold';letter-spacing:3.42000008px;word-spacing:0px;display:inline;fill:#ffffff;fill-opacity:1;stroke:#000000;stroke-width:1;stroke-linecap:butt;stroke-linejoin:miter;stroke-miterlimit:4;stroke-dasharray:none;stroke-opacity:1"
         xml:space="preserve"><textPath
           style="letter-spacing:1.57999635px;stroke:#000000;stroke-opacity:1"
           id="textPath4300"
           xlink:href="#path4294"><tspan
   dx="0 0"
   style="font-size:25px;letter-spacing:1.57999635px;stroke:#000000;stroke-width:1;stroke-miterlimit:4;stroke-dasharray:none;stroke-opacity:1"
   id="tspan4298">Sugar</tspan></textPath></text>
      <text
         transform="translate(-4.6148162,11.229633)"
         sodipodi:linespacing="125%"
         id="text4304"
         style="font-style:normal;font-variant:normal;font-weight:bold;font-stretch:normal;font-size:40px;line-height:125%;font-family:sans-serif;-inkscape-font-specification:'sans-serif Bold';letter-spacing:3.41000009px;word-spacing:0px;display:inline;fill:#ffffff;fill-opacity:1;stroke:#000000;stroke-width:1px;stroke-linecap:butt;stroke-linejoin:miter;stroke-opacity:1"
         xml:space="preserve"><textPath
           id="textPath4316"
           xlink:href="#path4314"><tspan
   dx="0 8.9600029"
   id="tspan4306"
   style="font-size:25px;letter-spacing:3.41000009px;stroke:#000000;stroke-opacity:1">4Brain</tspan></textPath></text>
      <ellipse
         transform="matrix(-0.86009621,0.51013186,0.57939299,0.81504832,0,0)"
         ry="59.347855"
         rx="63.656284"
         cy="-6.752573"
         cx="-243.04254"
         id="ellipse5862"
         style="display:inline;fill:none;fill-opacity:1;stroke:none;stroke-width:0.10746382;stroke-linecap:butt;stroke-linejoin:round;stroke-miterlimit:4;stroke-dasharray:none;stroke-dashoffset:0;stroke-opacity:1" />
      <ellipse
         ry="70.423805"
         rx="83.276276"
         cy="-127.3997"
         cx="197.47713"
         id="path4320"
         style="fill:none;fill-opacity:1;fill-rule:nonzero;stroke:#ffffff;stroke-width:4.5999999;stroke-linecap:butt;stroke-linejoin:round;stroke-miterlimit:4;stroke-dasharray:none;stroke-dashoffset:0;stroke-opacity:1" />
      <ellipse
         ry="70.423805"
         rx="83.276276"
         cy="-127.1816"
         cx="197.74548"
         id="path4320-6"
         style="display:inline;fill:none;fill-opacity:1;fill-rule:nonzero;stroke:#000000;stroke-width:2.9000001;stroke-linecap:butt;stroke-linejoin:round;stroke-miterlimit:4;stroke-dasharray:none;stroke-dashoffset:0;stroke-opacity:1" />
    </g>
  </g>
</svg>
